<svg xmlns="http://www.w3.org/2000/svg" version="1.1" xmlns:xlink="http://www.w3.org/1999/xlink" viewBox="0 0 200 200"><rect width="200" height="200" fill="url('#gradient')"></rect><defs><linearGradient id="gradient" gradientTransform="rotate(0 0.5 0.5)"><stop offset="0%" stop-color="#ede7d6"></stop><stop offset="100%" stop-color="#faf3e0"></stop></linearGradient></defs><g><g fill="#bb883d" transform="matrix(1.7614806750136092,0,0,1.7614806750136092,19.898032565345304,113.04599075763849)" stroke="#6391a3" stroke-width="0.55"><path d="M8.41-3.78L8.41-3.78Q8.41-4.53 7.88-4.95Q7.34-5.37 6.01-5.82Q4.67-6.27 3.82-6.69L3.82-6.69Q1.05-8.05 1.05-10.42L1.05-10.42Q1.05-11.60 1.74-12.50Q2.43-13.41 3.69-13.91Q4.95-14.41 6.52-14.41L6.52-14.41Q8.06-14.41 9.27-13.87Q10.49-13.32 11.16-12.31Q11.84-11.30 11.84-10L11.84-10L8.42-10Q8.42-10.87 7.89-11.35Q7.35-11.83 6.45-11.83L6.45-11.83Q5.53-11.83 5.00-11.42Q4.46-11.02 4.46-10.39L4.46-10.39Q4.46-9.84 5.05-9.40Q5.63-8.96 7.11-8.48Q8.58-8.01 9.53-7.46L9.53-7.46Q11.84-6.13 11.84-3.80L11.84-3.80Q11.84-1.93 10.43-0.87Q9.02 0.20 6.57 0.20L6.57 0.20Q4.84 0.20 3.44-0.42Q2.04-1.04 1.33-2.12Q0.63-3.20 0.63-4.61L0.63-4.61L4.06-4.61Q4.06-3.47 4.65-2.92Q5.24-2.38 6.57-2.38L6.57-2.38Q7.42-2.38 7.92-2.75Q8.41-3.12 8.41-3.78ZM13.38-10.57L16.46-10.57L16.57-9.33Q17.67-10.76 19.59-10.76L19.59-10.76Q21.24-10.76 22.06-9.78Q22.87-8.79 22.90-6.81L22.90-6.81L22.90 0L19.60 0L19.60-6.67Q19.60-7.47 19.28-7.85Q18.96-8.22 18.11-8.22L18.11-8.22Q17.14-8.22 16.67-7.46L16.67-7.46L16.67 0L13.38 0L13.38-10.57ZM33.96 0L30.67 0Q30.50-0.32 30.36-0.95L30.36-0.95Q29.45 0.20 27.82 0.20L27.82 0.20Q26.33 0.20 25.28-0.71Q24.24-1.61 24.24-2.98L24.24-2.98Q24.24-4.70 25.51-5.58Q26.78-6.46 29.20-6.46L29.20-6.46L30.21-6.46L30.21-7.01Q30.21-8.47 28.96-8.47L28.96-8.47Q27.78-8.47 27.78-7.31L27.78-7.31L24.49-7.31Q24.49-8.85 25.80-9.80Q27.10-10.76 29.12-10.76Q31.14-10.76 32.31-9.78Q33.49-8.79 33.52-7.07L33.52-7.07L33.52-2.39Q33.54-0.94 33.96-0.17L33.96-0.17L33.96 0ZM28.61-2.15L28.61-2.15Q29.23-2.15 29.63-2.41Q30.04-2.68 30.21-3.01L30.21-3.01L30.21-4.70L29.26-4.70Q27.54-4.70 27.54-3.15L27.54-3.15Q27.54-2.71 27.84-2.43Q28.14-2.15 28.61-2.15ZM41.88 0L39.58-3.94L38.65-3.01L38.65 0L35.36 0L35.36-15.01L38.65-15.01L38.65-7.04L38.98-7.48L41.46-10.57L45.41-10.57L41.71-6.22L45.65 0L41.88 0ZM51.19 0.20L51.19 0.20Q48.76 0.20 47.26-1.25Q45.75-2.71 45.75-5.03L45.75-5.03L45.75-5.30Q45.75-6.92 46.35-8.16Q46.95-9.40 48.11-10.08Q49.26-10.76 50.84-10.76L50.84-10.76Q53.07-10.76 54.36-9.38Q55.64-8.00 55.64-5.53L55.64-5.53L55.64-4.25L49.10-4.25Q49.28-3.36 49.87-2.85Q50.47-2.34 51.42-2.34L51.42-2.34Q52.98-2.34 53.86-3.44L53.86-3.44L55.36-1.66Q54.75-0.81 53.62-0.31Q52.49 0.20 51.19 0.20ZM50.82-8.22L50.82-8.22Q49.38-8.22 49.10-6.31L49.10-6.31L52.42-6.31L52.42-6.56Q52.44-7.35 52.02-7.79Q51.60-8.22 50.82-8.22ZM62.89 0L57.12 0L57.12-14.22L62.23-14.22Q64.97-14.22 66.40-13.21Q67.83-12.21 67.83-10.29L67.83-10.29Q67.83-9.19 67.32-8.41Q66.82-7.63 65.83-7.26L65.83-7.26Q66.94-6.96 67.54-6.16Q68.13-5.36 68.13-4.21L68.13-4.21Q68.13-2.12 66.81-1.07Q65.49-0.02 62.89 0L62.89 0ZM62.95-6.04L60.55-6.04L60.55-2.64L62.79-2.64Q63.72-2.64 64.22-3.06Q64.72-3.49 64.72-4.26L64.72-4.26Q64.72-6.04 62.95-6.04L62.95-6.04ZM60.55-11.57L60.55-8.29L62.33-8.29Q63.46-8.30 63.94-8.70Q64.41-9.10 64.41-9.88L64.41-9.88Q64.41-10.78 63.90-11.18Q63.38-11.57 62.23-11.57L62.23-11.57L60.55-11.57ZM74.98 0.20L74.98 0.20Q72.55 0.20 71.04-1.25Q69.54-2.71 69.54-5.03L69.54-5.03L69.54-5.30Q69.54-6.92 70.14-8.16Q70.74-9.40 71.89-10.08Q73.05-10.76 74.63-10.76L74.63-10.76Q76.86-10.76 78.14-9.38Q79.43-8.00 79.43-5.53L79.43-5.53L79.43-4.25L72.89-4.25Q73.07-3.36 73.66-2.85Q74.26-2.34 75.21-2.34L75.21-2.34Q76.77-2.34 77.65-3.44L77.65-3.44L79.15-1.66Q78.54-0.81 77.41-0.31Q76.28 0.20 74.98 0.20ZM74.61-8.22L74.61-8.22Q73.16-8.22 72.89-6.31L72.89-6.31L76.21-6.31L76.21-6.56Q76.23-7.35 75.81-7.79Q75.39-8.22 74.61-8.22ZM85.87 0.20L85.87 0.20Q83.44 0.20 81.93-1.25Q80.43-2.71 80.43-5.03L80.43-5.03L80.43-5.30Q80.43-6.92 81.03-8.16Q81.63-9.40 82.78-10.08Q83.94-10.76 85.52-10.76L85.52-10.76Q87.74-10.76 89.03-9.38Q90.32-8.00 90.32-5.53L90.32-5.53L90.32-4.25L83.78-4.25Q83.96-3.36 84.55-2.85Q85.15-2.34 86.09-2.34L86.09-2.34Q87.66-2.34 88.54-3.44L88.54-3.44L90.04-1.66Q89.42-0.81 88.30-0.31Q87.17 0.20 85.87 0.20ZM85.50-8.22L85.50-8.22Q84.05-8.22 83.78-6.31L83.78-6.31L87.10-6.31L87.10-6.56Q87.12-7.35 86.70-7.79Q86.28-8.22 85.50-8.22Z"></path></g></g></svg>